<?xml version="1.0" encoding="UTF-8" standalone="no"?>
<svg
   xmlns:dc="http://purl.org/dc/elements/1.1/"
   xmlns:cc="http://creativecommons.org/ns#"
   xmlns:rdf="http://www.w3.org/1999/02/22-rdf-syntax-ns#"
   xmlns:svg="http://www.w3.org/2000/svg"
   xmlns="http://www.w3.org/2000/svg"
   xmlns:sodipodi="http://sodipodi.sourceforge.net/DTD/sodipodi-0.dtd"
   xmlns:inkscape="http://www.inkscape.org/namespaces/inkscape"
   version="1.1"
   width="50"
   height="50"
   x="0"
   y="0"
   viewBox="0 0 50 50"
   xml:space="preserve"
   class=""
   id="svg28"
   sodipodi:docname="coral.svg"
   inkscape:version="1.0.2 (e86c870879, 2021-01-15, custom)"><metadata
     id="metadata34"><rdf:RDF><cc:Work
         rdf:about=""><dc:format>image/svg+xml</dc:format><dc:type
           rdf:resource="http://purl.org/dc/dcmitype/StillImage" /><dc:title></dc:title></cc:Work></rdf:RDF></metadata><defs
     id="defs32" /><sodipodi:namedview
     pagecolor="#ffffff"
     bordercolor="#666666"
     borderopacity="1"
     objecttolerance="10"
     gridtolerance="10"
     guidetolerance="10"
     inkscape:pageopacity="0"
     inkscape:pageshadow="2"
     inkscape:window-width="1366"
     inkscape:window-height="706"
     id="namedview30"
     showgrid="false"
     inkscape:zoom="1.0507812"
     inkscape:cx="256"
     inkscape:cy="179.86617"
     inkscape:window-x="-8"
     inkscape:window-y="-8"
     inkscape:window-maximized="1"
     inkscape:current-layer="svg28" /><g
     id="g26"
     transform="matrix(0.07669096,0,0,0.07669096,5.3364441,4.7583642)"><g
       id="g16"><path
         d="m 441,256 c 0,136.34 -81.75,247.04 -183,248.48 -0.66,0.01 -1.33,0.02 -2,0.02 C 153.83,504.5 71,393.24 71,256 71,118.76 153.83,7.5 256,7.5 c 0.67,0 1.34,0.01 2,0.02 C 359.25,8.96 441,119.66 441,256 Z"
         fill="#fde6e6"
         data-original="#66ffb2"
         class=""
         id="path2" /><g
         fill="#47d6b0"
         id="g10"><path
           d="M 441,256 C 441,392.34 359.25,503.04 258,504.48 342.65,502.76 409,392.17 409,256 409,119.83 342.65,9.24 258,7.52 359.25,8.96 441,119.66 441,256 Z"
           fill="#e7dfdf"
           data-original="#47d6b0"
           class=""
           id="path4" /><path
           d="M 256,256 V 504.5 C 153.83,504.5 71,393.24 71,256 Z"
           fill="#e7dfdf"
           data-original="#47d6b0"
           class=""
           id="path6" /><path
           d="M 441,256 H 256 V 7.5 c 0.67,0 1.34,0.01 2,0.02 C 359.25,8.96 441,119.66 441,256 Z"
           fill="#e7dfdf"
           data-original="#47d6b0"
           class=""
           id="path8" /></g><path
         d="M 441,256 H 409 C 409,119.83 342.65,9.24 258,7.52 359.25,8.96 441,119.66 441,256 Z"
         fill="#d7d7d7"
         data-original="#33bcab"
         class=""
         id="path12" /><path
         d="M 254.5,67.39 380.747,252.402 255.5,445.39 125.635,256 Z"
         fill="#f3f3f3"
         data-original="#ccffe7"
         class=""
         id="path14" /></g><g
       id="g24"><path
         d="M 392.831,75.805 C 356.438,26.921 307.844,0 256,0 208.401,0 162.741,23.208 127.429,65.347 c -2.661,3.175 -2.244,7.905 0.932,10.565 3.173,2.661 7.905,2.244 10.565,-0.932 C 169.453,38.55 208.111,17.536 248.5,15.215 V 59 C 220.549,107.662 176.331,179.202 121.992,248.498 H 78.583 c 1.162,-52.505 14.531,-101.793 38.84,-142.97 2.106,-3.567 0.921,-8.166 -2.646,-10.271 -3.566,-2.104 -8.165,-0.922 -10.271,2.646 C 77.68,143.345 63.5,198.013 63.5,256 c 0,87.029 32.727,167.303 87.545,214.734 1.418,1.227 3.165,1.828 4.904,1.828 2.102,0 4.192,-0.878 5.675,-2.593 2.71,-3.132 2.368,-7.869 -0.765,-10.579 C 110.85,416.12 80.384,343.313 78.584,263.499 h 43.407 c 54.34,69.296 98.557,140.836 126.508,189.498 v 43.791 c -20.646,-1.161 -40.727,-7.124 -59.796,-17.771 -3.617,-2.02 -8.185,-0.724 -10.205,2.892 -2.02,3.617 -0.725,8.186 2.892,10.205 C 205.024,505.31 230.126,512 256,512 307.844,512 356.438,485.079 392.831,436.195 428.729,387.974 448.5,323.979 448.5,256 448.5,188.021 428.729,124.026 392.831,75.805 Z M 263.5,496.788 v -43.789 c 12.838,-22.352 26.244,-44.574 39.863,-66.079 2.216,-3.499 1.176,-8.133 -2.323,-10.349 -3.5,-2.218 -8.133,-1.177 -10.349,2.323 -11.799,18.63 -23.438,37.792 -34.692,57.113 C 227.912,387.804 185.992,321.047 135.17,256 185.992,190.953 227.911,124.197 255.999,75.994 c 23.844,40.947 48.903,80.334 74.594,117.236 2.366,3.4 7.041,4.237 10.44,1.87 3.399,-2.367 4.237,-7.041 1.87,-10.44 C 315.473,145.261 288.764,102.993 263.5,59.002 v -43.79 c 92.58,5.251 167.063,107.242 169.915,233.288 h -43.406 c -8.79,-11.21 -17.657,-22.912 -26.39,-34.831 -2.448,-3.341 -7.142,-4.065 -10.482,-1.617 -3.341,2.448 -4.065,7.141 -1.617,10.482 8.374,11.429 16.872,22.664 25.311,33.465 -22.219,28.437 -44.475,59.413 -66.212,92.159 -2.291,3.451 -1.351,8.105 2.101,10.396 1.276,0.847 2.716,1.252 4.141,1.252 2.429,0 4.812,-1.178 6.255,-3.353 21.968,-33.093 44.461,-64.349 66.894,-92.955 h 43.407 C 430.563,389.545 356.08,491.537 263.5,496.788 Z"
         fill="#000000"
         data-original="#000000"
         class=""
         id="path18" /><path
         d="m 246.55,155.417 c -3.536,-2.162 -8.151,-1.044 -10.31,2.49 -0.207,0.338 -20.96,34.194 -47.706,68.194 -2.561,3.256 -1.998,7.971 1.257,10.532 1.375,1.082 3.009,1.606 4.632,1.606 2.221,0 4.42,-0.982 5.899,-2.863 27.288,-34.689 48.505,-69.302 48.716,-69.648 2.161,-3.536 1.046,-8.152 -2.488,-10.311 z"
         fill="#000000"
         data-original="#000000"
         class=""
         id="path20" /><path
         d="m 259.864,193.733 c -3.534,-2.16 -8.15,-1.046 -10.31,2.488 -0.09,0.147 -9.12,14.868 -20.711,29.603 -2.561,3.256 -1.998,7.971 1.257,10.532 1.375,1.082 3.009,1.606 4.632,1.606 2.221,0 4.42,-0.982 5.899,-2.863 12.162,-15.459 21.337,-30.427 21.721,-31.056 2.161,-3.535 1.046,-8.15 -2.488,-10.31 z"
         fill="#000000"
         data-original="#000000"
         class=""
         id="path22" /></g></g></svg>
