<?xml version="1.0" encoding="UTF-8" standalone="no"?>
<svg
   xmlns:dc="http://purl.org/dc/elements/1.1/"
   xmlns:cc="http://creativecommons.org/ns#"
   xmlns:rdf="http://www.w3.org/1999/02/22-rdf-syntax-ns#"
   xmlns:svg="http://www.w3.org/2000/svg"
   xmlns="http://www.w3.org/2000/svg"
   xmlns:sodipodi="http://sodipodi.sourceforge.net/DTD/sodipodi-0.dtd"
   xmlns:inkscape="http://www.inkscape.org/namespaces/inkscape"
   version="1.1"
   width="50"
   height="50"
   x="0"
   y="0"
   viewBox="0 0 4.4849609 4.4849609"
   xml:space="preserve"
   class=""
   id="svg52"
   sodipodi:docname="diamondsc.svg"
   inkscape:version="1.0.2 (e86c870879, 2021-01-15, custom)"><metadata
     id="metadata58"><rdf:RDF><cc:Work
         rdf:about=""><dc:format>image/svg+xml</dc:format><dc:type
           rdf:resource="http://purl.org/dc/dcmitype/StillImage" /><dc:title></dc:title></cc:Work></rdf:RDF></metadata><defs
     id="defs56" /><sodipodi:namedview
     pagecolor="#ffffff"
     bordercolor="#666666"
     borderopacity="1"
     objecttolerance="10"
     gridtolerance="10"
     guidetolerance="10"
     inkscape:pageopacity="0"
     inkscape:pageshadow="2"
     inkscape:window-width="1366"
     inkscape:window-height="706"
     id="namedview54"
     showgrid="false"
     inkscape:zoom="1.0507812"
     inkscape:cx="256"
     inkscape:cy="141.79926"
     inkscape:window-x="-8"
     inkscape:window-y="-8"
     inkscape:window-maximized="1"
     inkscape:current-layer="svg52" /><g
     id="g50"
     transform="matrix(0.07172723,0,0,0.07172723,0.59755018,0.5779531)">
<g
   id="g18">
	<g
   id="g16">
		<path
   d="M 45.926,30.515 V 10.651 c 0,-4.317 -3.541,-7.812 -7.857,-7.812 H 7.842 C 3.525,2.839 0,6.334 0,10.651 v 19.864 c 0,2.637 1.319,4.979 3.327,6.396 l -0.251,0.003 c -0.002,0 -0.007,0 -0.009,0 -1.681,0 -3.048,1.356 -3.052,3.038 -0.007,1.688 1.356,3.029 3.042,3.035 l 39.679,0.1 c 0.006,0 0.008,0 0.012,0 1.682,0 3.047,-1.334 3.052,-3.016 0.005,-1.688 -1.358,-3.045 -3.042,-3.051 l -0.346,0.006 c 2.108,-1.404 3.514,-3.795 3.514,-6.511 z m -4.033,0 c 0,2.115 -1.707,3.766 -3.824,3.766 H 7.842 C 5.725,34.281 3.95,32.632 3.95,30.515 V 10.651 C 3.95,8.534 5.724,6.79 7.842,6.79 h 30.227 c 2.117,0 3.824,1.745 3.824,3.861 z"
   fill="#1696b3"
   data-original="#000000"
   class=""
   id="path2" />
		<polygon
   points="20.99,13.249 19.403,17.638 26.539,17.638 24.953,13.249 "
   fill="#1696b3"
   data-original="#000000"
   class=""
   id="polygon4" />
		<path
   d="m 27.176,13.249 1.586,4.389 h 2.152 c 0.16,0 0.311,-0.08 0.398,-0.213 0.09,-0.133 0.105,-0.302 0.045,-0.45 l -1.096,-2.636 c -0.273,-0.66 -0.919,-1.09 -1.634,-1.09 z"
   fill="#1696b3"
   data-original="#000000"
   class=""
   id="path6" />
		<path
   d="m 18.766,13.249 h -1.453 c -0.715,0 -1.359,0.43 -1.634,1.09 l -1.095,2.636 c -0.062,0.148 -0.045,0.316 0.044,0.45 0.089,0.134 0.239,0.213 0.399,0.213 h 2.152 z"
   fill="#1696b3"
   data-original="#000000"
   class=""
   id="path8" />
		<path
   d="m 19.512,18.893 3.153,9.103 c 0.045,0.13 0.168,0.218 0.307,0.218 0.139,0 0.261,-0.088 0.307,-0.218 l 3.153,-9.103 z"
   fill="#1696b3"
   data-original="#000000"
   class=""
   id="path10" />
		<path
   d="m 15.214,18.893 c -0.177,0 -0.34,0.098 -0.423,0.255 -0.083,0.157 -0.073,0.347 0.027,0.494 l 4.556,6.714 c 0.069,0.103 0.203,0.137 0.312,0.082 0.11,-0.055 0.162,-0.183 0.122,-0.299 l -2.51,-7.247 h -2.084 z"
   fill="#1696b3"
   data-original="#000000"
   class=""
   id="path12" />
		<path
   d="m 26.137,26.14 c -0.041,0.116 0.012,0.244 0.121,0.299 0.109,0.055 0.243,0.021 0.312,-0.082 l 4.556,-6.713 c 0.101,-0.147 0.11,-0.337 0.026,-0.494 -0.082,-0.157 -0.245,-0.255 -0.422,-0.255 h -2.084 z"
   fill="#1696b3"
   data-original="#000000"
   class=""
   id="path14" />
	</g>
</g>
<g
   id="g20">
</g>
<g
   id="g22">
</g>
<g
   id="g24">
</g>
<g
   id="g26">
</g>
<g
   id="g28">
</g>
<g
   id="g30">
</g>
<g
   id="g32">
</g>
<g
   id="g34">
</g>
<g
   id="g36">
</g>
<g
   id="g38">
</g>
<g
   id="g40">
</g>
<g
   id="g42">
</g>
<g
   id="g44">
</g>
<g
   id="g46">
</g>
<g
   id="g48">
</g>
</g></svg>
