<?xml version="1.0" encoding="UTF-8" standalone="no"?>
<svg
   xmlns:dc="http://purl.org/dc/elements/1.1/"
   xmlns:cc="http://creativecommons.org/ns#"
   xmlns:rdf="http://www.w3.org/1999/02/22-rdf-syntax-ns#"
   xmlns:svg="http://www.w3.org/2000/svg"
   xmlns="http://www.w3.org/2000/svg"
   xmlns:sodipodi="http://sodipodi.sourceforge.net/DTD/sodipodi-0.dtd"
   xmlns:inkscape="http://www.inkscape.org/namespaces/inkscape"
   version="1.1"
   width="50"
   height="50"
   x="0"
   y="0"
   viewBox="0 0 50 50"
   xml:space="preserve"
   class=""
   id="svg52"
   sodipodi:docname="gemstone.svg"
   inkscape:version="1.0.2 (e86c870879, 2021-01-15, custom)"><metadata
     id="metadata58"><rdf:RDF><cc:Work
         rdf:about=""><dc:format>image/svg+xml</dc:format><dc:type
           rdf:resource="http://purl.org/dc/dcmitype/StillImage" /><dc:title></dc:title></cc:Work></rdf:RDF></metadata><defs
     id="defs56" /><sodipodi:namedview
     pagecolor="#ffffff"
     bordercolor="#666666"
     borderopacity="1"
     objecttolerance="10"
     gridtolerance="10"
     guidetolerance="10"
     inkscape:pageopacity="0"
     inkscape:pageshadow="2"
     inkscape:window-width="1366"
     inkscape:window-height="706"
     id="namedview54"
     showgrid="false"
     inkscape:zoom="1.0507812"
     inkscape:cx="256"
     inkscape:cy="179.86617"
     inkscape:window-x="-8"
     inkscape:window-y="-8"
     inkscape:window-maximized="1"
     inkscape:current-layer="svg52" /><g
     id="g50"
     transform="matrix(0.08265472,0,0,0.08363597,3.5833562,4.7583643)">
<g
   id="g6">
	<g
   id="g4">
		<path
   d="m 479.041,132.934 c -0.003,-0.409 -0.028,-0.817 -0.081,-1.226 -0.004,-0.027 -0.01,-0.054 -0.014,-0.081 -0.051,-0.365 -0.126,-0.729 -0.219,-1.091 -0.026,-0.1 -0.054,-0.2 -0.083,-0.299 -0.084,-0.292 -0.184,-0.581 -0.296,-0.868 -0.038,-0.098 -0.073,-0.199 -0.115,-0.296 -0.154,-0.356 -0.323,-0.71 -0.521,-1.055 -0.006,-0.011 -0.013,-0.022 -0.019,-0.033 -0.2,-0.344 -0.421,-0.668 -0.654,-0.979 -0.061,-0.082 -0.128,-0.16 -0.192,-0.24 -0.196,-0.246 -0.4,-0.48 -0.614,-0.703 -0.068,-0.071 -0.136,-0.142 -0.206,-0.211 -0.274,-0.269 -0.559,-0.523 -0.859,-0.756 -0.014,-0.011 -0.026,-0.023 -0.04,-0.033 -0.329,-0.253 -0.675,-0.481 -1.03,-0.69 -0.024,-0.014 -0.045,-0.032 -0.069,-0.046 L 261.026,1.346 C 261.001,1.331 260.974,1.322 260.948,1.308 260.593,1.106 260.226,0.923 259.846,0.765 259.82,0.754 259.793,0.746 259.767,0.736 259.426,0.598 259.074,0.482 258.716,0.382 258.615,0.354 258.513,0.329 258.412,0.304 258.118,0.232 257.819,0.173 257.516,0.127 257.411,0.111 257.306,0.092 257.201,0.079 256.805,0.03 256.413,0 256.011,0 256.005,0 256,0 255.994,0 c -0.402,0 -0.795,0.031 -1.185,0.077 -0.103,0.012 -0.206,0.031 -0.309,0.047 -0.307,0.046 -0.608,0.105 -0.907,0.179 -0.099,0.024 -0.198,0.048 -0.296,0.076 -0.362,0.101 -0.718,0.219 -1.063,0.358 -0.023,0.009 -0.046,0.016 -0.069,0.025 -0.381,0.158 -0.749,0.341 -1.104,0.544 -0.025,0.014 -0.052,0.024 -0.078,0.038 L 37.97,124.326 c -0.026,0.015 -0.049,0.035 -0.074,0.05 -0.351,0.207 -0.693,0.432 -1.019,0.682 -0.023,0.018 -0.044,0.038 -0.066,0.056 -0.289,0.226 -0.565,0.472 -0.831,0.732 -0.075,0.073 -0.148,0.149 -0.22,0.225 -0.21,0.219 -0.41,0.448 -0.601,0.688 -0.067,0.083 -0.135,0.165 -0.2,0.25 -0.232,0.31 -0.452,0.632 -0.651,0.975 -0.006,0.011 -0.013,0.022 -0.019,0.033 -0.199,0.345 -0.367,0.698 -0.521,1.055 -0.042,0.097 -0.077,0.197 -0.115,0.296 -0.112,0.287 -0.212,0.576 -0.296,0.868 -0.029,0.099 -0.057,0.199 -0.083,0.299 -0.092,0.361 -0.168,0.725 -0.219,1.091 -0.004,0.027 -0.01,0.053 -0.014,0.081 -0.053,0.409 -0.078,0.817 -0.081,1.226 0,0.03 -0.006,0.058 -0.006,0.088 v 245.961 c 0,0.029 0.005,0.057 0.006,0.085 0.002,0.408 0.026,0.818 0.08,1.229 0.003,0.023 0.009,0.046 0.012,0.069 0.051,0.37 0.128,0.738 0.222,1.104 0.025,0.097 0.053,0.194 0.081,0.29 0.085,0.296 0.187,0.589 0.301,0.88 0.037,0.095 0.071,0.191 0.111,0.285 0.156,0.363 0.328,0.724 0.531,1.074 0.014,0.024 0.031,0.044 0.045,0.067 0.211,0.358 0.441,0.705 0.695,1.035 0.154,0.2 0.326,0.378 0.492,0.563 0.125,0.141 0.241,0.288 0.375,0.423 0.214,0.213 0.445,0.403 0.674,0.593 0.106,0.089 0.205,0.187 0.315,0.271 0.261,0.2 0.537,0.373 0.814,0.545 0.09,0.056 0.172,0.123 0.264,0.177 l 0.052,0.03 c 0.013,0.007 0.025,0.015 0.038,0.022 l 212.922,122.928 c 0.025,0.015 0.052,0.024 0.078,0.038 0.356,0.202 0.724,0.385 1.104,0.544 0.023,0.009 0.046,0.016 0.069,0.025 0.345,0.14 0.701,0.257 1.063,0.358 0.098,0.028 0.197,0.052 0.296,0.076 0.297,0.073 0.599,0.133 0.907,0.179 0.103,0.016 0.205,0.035 0.308,0.047 0.393,0.046 0.789,0.077 1.194,0.077 0.405,0 0.801,-0.031 1.194,-0.077 0.103,-0.012 0.206,-0.031 0.308,-0.047 0.307,-0.046 0.608,-0.105 0.907,-0.179 0.099,-0.024 0.198,-0.048 0.296,-0.076 0.362,-0.101 0.718,-0.219 1.063,-0.358 0.023,-0.009 0.046,-0.016 0.069,-0.025 0.381,-0.158 0.749,-0.341 1.104,-0.544 0.025,-0.014 0.052,-0.024 0.078,-0.038 l 212.916,-122.93 c 0.01,-0.005 0.019,-0.011 0.029,-0.016 l 0.058,-0.033 c 0.102,-0.059 0.192,-0.133 0.291,-0.195 0.267,-0.167 0.533,-0.333 0.784,-0.525 0.118,-0.09 0.224,-0.195 0.337,-0.29 0.222,-0.186 0.446,-0.368 0.653,-0.575 0.139,-0.139 0.258,-0.291 0.388,-0.437 0.162,-0.181 0.33,-0.354 0.48,-0.549 0.254,-0.33 0.485,-0.678 0.696,-1.036 0.014,-0.023 0.031,-0.043 0.044,-0.066 0.203,-0.351 0.374,-0.711 0.531,-1.074 0.04,-0.093 0.074,-0.19 0.111,-0.285 0.114,-0.291 0.215,-0.584 0.301,-0.88 0.028,-0.096 0.056,-0.193 0.081,-0.29 0.094,-0.367 0.171,-0.736 0.223,-1.106 0.003,-0.022 0.009,-0.044 0.011,-0.066 0.054,-0.41 0.078,-0.821 0.082,-1.231 0,-0.029 0.006,-0.057 0.006,-0.085 v -245.96 c 0.003,-0.031 -0.003,-0.059 -0.003,-0.089 z m -213,-105.507 182.883,105.591 -83.495,48.202 -99.388,-57.381 z m -20.077,0 v 96.412 L 146.566,181.22 63.07,133.019 Z M 53.03,150.408 136.526,198.61 V 313.381 L 53.03,361.591 Z M 245.964,484.573 63.069,378.98 l 83.496,-48.211 99.398,57.381 v 96.423 z M 256.003,370.76 156.605,313.379 v -114.77 l 99.398,-57.381 99.388,57.381 V 313.38 Z m 10.039,113.813 v -96.424 l 99.388,-57.38 83.497,48.211 z M 458.966,361.591 375.47,313.381 V 198.61 l 83.496,-48.202 z"
   fill="#155fbd"
   data-original="#000000"
   class=""
   id="path2" />
	</g>
</g>
<g
   id="g12">
	<g
   id="g10">
		<path
   d="m 438.047,232.732 c -5.544,0 -10.039,4.495 -10.039,10.039 v 64.257 c 0,5.545 4.495,10.039 10.039,10.039 5.544,0 10.039,-4.495 10.039,-10.039 v -64.257 c 0,-5.544 -4.495,-10.039 -10.039,-10.039 z"
   fill="#155fbd"
   data-original="#000000"
   class=""
   id="path8" />
	</g>
</g>
<g
   id="g18">
	<g
   id="g16">
		<path
   d="m 438.047,194.924 c -12.919,0 -12.941,20.078 0,20.078 12.92,10e-4 12.941,-20.078 0,-20.078 z"
   fill="#155fbd"
   data-original="#000000"
   class=""
   id="path14" />
	</g>
</g>
<g
   id="g20">
</g>
<g
   id="g22">
</g>
<g
   id="g24">
</g>
<g
   id="g26">
</g>
<g
   id="g28">
</g>
<g
   id="g30">
</g>
<g
   id="g32">
</g>
<g
   id="g34">
</g>
<g
   id="g36">
</g>
<g
   id="g38">
</g>
<g
   id="g40">
</g>
<g
   id="g42">
</g>
<g
   id="g44">
</g>
<g
   id="g46">
</g>
<g
   id="g48">
</g>
</g></svg>
